<?xml version="1.0" encoding="utf-8"?>
<!-- Generator: Adobe Illustrator 21.1.0, SVG Export Plug-In . SVG Version: 6.00 Build 0)  -->
<svg version="1.1" id="Layer_1" xmlns="http://www.w3.org/2000/svg" xmlns:xlink="http://www.w3.org/1999/xlink" x="0px" y="0px"
	 viewBox="0 0 71.744881 17.504883" enable-background="new 0 0 71.744881 17.504883" xml:space="preserve">
<g>
	<g>
		<path fill="#0082B1" d="M32.180058,1.833008h1.700195v8.664063c0,0.414063,0.192383,0.561523,0.369629,0.561523
			c0.07373,0,0.132813,0,0.266113-0.029297l0.22168,1.271484c-0.207031,0.088867-0.502441,0.148438-0.901855,0.148438
			c-1.212402,0-1.655762-0.78418-1.655762-2.041016V1.833008z"/>
		<path fill="#0082B1" d="M39.158085,4.833984c1.818848,0,3.459961,1.389648,3.459961,3.81543
			c0,2.40918-1.641113,3.799805-3.459961,3.799805c-1.803711,0-3.444824-1.390625-3.444824-3.799805
			C35.713261,6.223633,37.354374,4.833984,39.158085,4.833984z M39.158085,11.058594c1.064453,0,1.715332-0.960938,1.715332-2.40918
			c0-1.463867-0.650879-2.425781-1.715332-2.425781S37.45789,7.185547,37.45789,8.649414
			C37.45789,10.097656,38.093632,11.058594,39.158085,11.058594z"/>
		<path fill="#0082B1" d="M47.467167,4.833984c0.931152,0,1.641113,0.370117,2.128906,0.842773l-0.812988,1.080078
			c-0.384766-0.34082-0.769043-0.533203-1.227539-0.533203c-1.167969,0-1.980957,0.961914-1.980957,2.425781
			c0,1.448242,0.79834,2.40918,1.937012,2.40918c0.591309,0,1.09375-0.294922,1.493164-0.620117l0.709473,1.079102
			c-0.679688,0.606445-1.552246,0.931641-2.380371,0.931641c-1.980957,0-3.503906-1.390625-3.503906-3.799805
			C43.82996,6.223633,45.530155,4.833984,47.467167,4.833984z"/>
		<path fill="#0082B1" d="M54.948124,7.628906c-0.014648-0.768555-0.340332-1.419922-1.315918-1.419922
			c-0.724609,0-1.404785,0.325195-2.040527,0.709961l-0.621094-1.138672c0.79834-0.50293,1.818848-0.946289,2.972168-0.946289
			c1.818359,0,2.705566,1.109375,2.705566,3.134766v4.302734h-1.389648l-0.133301-0.798828h-0.044434
			c-0.650391,0.547852-1.389648,0.976563-2.24707,0.976563c-1.271973,0-2.158691-0.857422-2.158691-2.129883
			C50.675175,8.767578,51.975956,7.954102,54.948124,7.628906z M53.366093,11.118164
			c0.591309,0,1.049805-0.295898,1.582031-0.798828V8.693359c-1.966309,0.250977-2.617188,0.768555-2.617188,1.493164
			C52.330936,10.836914,52.759647,11.118164,53.366093,11.118164z"/>
		<path fill="#0082B1" d="M58.968632,6.357422h-1.034668V5.085938l1.123535-0.074219l0.207031-1.981445h1.419434v1.981445h1.848145
			v1.345703h-1.848145v3.459961c0,0.857422,0.325195,1.271484,1.02002,1.271484c0.251465,0,0.547363-0.074219,0.754395-0.163086
			l0.29541,1.256836c-0.398926,0.132813-0.901855,0.266602-1.478516,0.266602c-1.685547,0-2.306641-1.064453-2.306641-2.631836
			V6.357422z"/>
		<path fill="#0082B1" d="M66.775269,4.833984c1.966309,0,3.001465,1.419922,3.001465,3.445313
			c0,0.325195-0.029297,0.621094-0.07373,0.798828h-4.613281c0.147949,1.31543,0.976074,2.054688,2.144043,2.054688
			c0.621094,0,1.15332-0.192383,1.685547-0.532227l0.57666,1.064453c-0.694824,0.458984-1.567383,0.78418-2.483887,0.78418
			c-2.01123,0-3.578121-1.405273-3.578121-3.799805C63.433964,6.283203,65.075073,4.833984,66.775269,4.833984z M68.298218,7.998047
			c0-1.15332-0.487793-1.847656-1.478516-1.847656c-0.857422,0-1.59668,0.635742-1.744629,1.847656H68.298218z"/>
	</g>
</g>
<polygon fill="#0082B1" points="1.421758,14.371434 16.07938,14.371435 14.857993,12.255859 5.085991,12.255859 9.970701,3.793556 
	8.749316,1.67798 "/>
<path fill="#0082B1" d="M18.518665,1.67798l7.321011,12.693454l1.235779-2.115575l-1.221386-2.115576l3.663671-6.346727
	L28.296354,1.67798H18.518665z M27.074932,3.793556L24.62125,8.02395l-2.43837-4.230393H27.074932z"/>
<polygon fill="#0082B1" points="11.193198,1.67798 16.078835,1.67798 17.30022,3.793556 14.857411,3.793556 17.295782,8.02395 
	18.525467,5.909386 19.747726,8.024457 18.528601,10.140284 19.749987,12.255859 18.514208,14.371434 "/>
</svg>
