<svg xmlns="http://www.w3.org/2000/svg" viewBox="0 0 96 16"><title>cpplocate-logo</title><polygon points="1.684 14.347 16.341 14.347 15.12 12.231 5.348 12.231 10.232 3.769 9.011 1.653 1.684 14.347" style="fill:#0f6a8b"/><path d="M18.78,1.6533l7.321,12.6934,1.2358-2.1155-1.2214-2.1156L29.78,3.7688,28.5581,1.6533Zm8.5563,2.1155-2.4537,4.23-2.4384-4.23Z" style="fill:#0f6a8b"/><polygon points="11.455 1.653 16.341 1.653 17.562 3.769 15.119 3.769 17.558 7.999 18.787 5.885 20.009 8 18.79 10.116 20.012 12.231 18.776 14.347 11.455 1.653" style="fill:#0f6a8b"/><path d="M32.5193,10.384V1.8078h1.7v8.6641c0,.4141.1924.5625.37.5625a1.0292,1.0292,0,0,0,.2661-.0293l.2217,1.2715a2.335,2.335,0,0,1-.9019.1484C32.9627,12.425,32.5193,11.64,32.5193,10.384Z" style="fill:#0f6a8b"/><path d="M36.0525,8.6242a3.47,3.47,0,1,1,6.9048,0,3.4684,3.4684,0,1,1-6.9048,0Zm5.16,0c0-1.4629-.6509-2.4257-1.7153-2.4257s-1.7.9628-1.7,2.4257c0,1.4493.6357,2.41,1.7,2.41S41.2127,10.0735,41.2127,8.6242Z" style="fill:#0f6a8b"/><path d="M44.1692,8.6242A3.58,3.58,0,0,1,47.8064,4.81a3.1338,3.1338,0,0,1,2.129.8125l-.8282,1.1094a1.7762,1.7762,0,0,0-1.2124-.5332c-1.1679,0-1.9809.9628-1.9809,2.4257,0,1.4493.7983,2.41,1.937,2.41a2.4229,2.4229,0,0,0,1.4931-.6211l.6949,1.123a3.625,3.625,0,0,1-2.3658.8887A3.4547,3.4547,0,0,1,44.1692,8.6242Z" style="fill:#0f6a8b"/><path d="M50.94,10.2942c0-1.5508,1.2867-2.3653,4.2735-2.6895-.03-.7695-.34-1.42-1.3311-1.42a4.1336,4.1336,0,0,0-2.04.709l-.6206-1.1387A5.6828,5.6828,0,0,1,54.2078,4.81c1.8042,0,2.7061,1.1094,2.7061,3.1347v4.3028H55.5091l-.1182-.7988h-.0591a3.5376,3.5376,0,0,1-2.2475.9765A2.03,2.03,0,0,1,50.94,10.2942Zm4.2735,0V8.6692c-1.9815.25-2.6324.7675-2.6324,1.4921,0,.65.4439.9317,1.05.9317A2.3047,2.3047,0,0,0,55.2137,10.2942Z" style="fill:#0f6a8b"/><path d="M58.9681,9.7922V6.3332H57.9334V5.0617l1.1235-.0742.2071-1.9824h1.4194V4.9875h1.8481V6.3332H60.6834v3.459c0,.8574.3252,1.2715,1.02,1.2715a2.1,2.1,0,0,0,.7544-.1621l.2954,1.2558a4.64,4.64,0,0,1-1.4785.2676C59.5892,12.425,58.9681,11.3606,58.9681,9.7922Z" style="fill:#0f6a8b"/><path d="M63.3445,8.6242A3.5328,3.5328,0,0,1,66.6858,4.81c1.9663,0,3.001,1.42,3.001,3.4453a4.0122,4.0122,0,0,1-.0732.8281H65a2.0787,2.0787,0,0,0,2.144,2.0254,3.0356,3.0356,0,0,0,1.6856-.5332l.5766,1.0645a4.5771,4.5771,0,0,1-2.4838.7851A3.5015,3.5015,0,0,1,63.3445,8.6242Zm4.8643-.6953c0-1.123-.4878-1.8027-1.4785-1.8027a1.8225,1.8225,0,0,0-1.7447,1.8027Z" style="fill:#0f6a8b"/></svg>